<svg xmlns="http://www.w3.org/2000/svg" viewBox="0 0 24 24"><style>.st1,.st2{fill:none;stroke:#fff;stroke-linecap:round;stroke-linejoin:round}.st2{fill:#fff}</style><path class="st1" d="M18 5h-.5c0 -.8 -.6 -1.5 -1.5 -1.5s-1.5.7 -1.5 1.5a2 2 0 0 0 -2 -2c-.5 0 -.9.2 -1.3.5C10.9 2.5 10 2 9 2a2.5 2.5 0 0 0 -2.5 2.5C5.7 4.5 5 5.2 5 6c0 .4.2.8.4 1C4.6 7 4 7.7 4 8.5c0 .9.7 1.5 1.5 1.5H18c1.4 0 2.5 -1.1 2.5 -2.5S19.4 5 18 5z"/><path class="st1" d="M13 8a2 2 0 0 0 -2 -2 2 2 0 0 0 -2 1.7.8.8 0 0 0 -.5 -.2 1 1 0 0 0 -1 1"/><path class="st1" d="M5.2 10h13.6a1 1 0 0 1 1 1.2l-1.7 10a1 1 0 0 1 -1 .8H6.8a1 1 0 0 1 -1 -.8l-1.7 -10c0 -.6.5 -1.2 1.1 -1.2z"/><path class="st2" d="M10 10l.5 12h3l.5 -12zM5.2 10a1 1 0 0 0 -1 1.2l1.7 10c.1.5.5.8 1 .8H9L8 10H5.2zM18.8 10H16l-1 12h2.2a1 1 0 0 0 1 -.8l1.7 -10c0 -.6 -.5 -1.2 -1.1 -1.2z"/></svg>