<svg version="1" xmlns="http://www.w3.org/2000/svg" width="933.333" height="933.333" viewBox="0 0 700.000000 700.000000"><path d="M259.8 43.5c-.1.1-3 .6-6.3.9-27.9 3.1-54.8 22.1-68.9 48.8-3.1 5.9-6.3 15.2-8 22.9-.5 2.1-1.4 2.9-4.5 3.7-10.3 2.6-24.6 13.7-31.5 24.4-8.2 12.9-11.2 30.3-7.5 43.8 1 3.6 1.7 6.5 1.6 6.6-.1.1-2.7 1.7-5.7 3.6-11.2 7.1-20.2 19.1-24.2 32.3-2.8 9-3 25.1-.3 34 2.1 7.4 7.2 16.7 11.9 21.9l3.5 4-3.3 4.5c-10.9 15.1-13 24.8-9.7 44.7 2.9 17.1 3 17.5 3.6 20.4.2 1.3.7 4 1 6 .3 2 .7 4.5.9 5.7.3 1.1.7 3.6 1 5.4.4 2.8 2.7 16.2 6.1 35.8.2 1.4.6 3.9.9 5.6.3 1.6 1.8 10.9 3.5 20.5 1.6 9.6 3.2 19.1 3.5 21 .3 1.9.8 4.5 1 5.6.2 1.2.7 3.9 1 6 .6 3.4 1.4 8.6 3.2 18.4.2 1.4 2.2 13.3 4.4 26.5 2.3 13.2 4.2 24.9 4.4 26 .6 3.3 1.6 8.9 2 11.5.2 1.4.9 5.2 1.5 8.5s1.3 7.5 1.6 9.2c.7 4.3 1.4 8.2 2 11.3.2 1.3.7 4.2 1 6.5 1 6.6 4.5 26.6 5.7 32 3.9 17.8 19.4 31.9 37.5 34.3 6.1.8 311.9.7 316.3-.1 16.6-3 32-17.2 35.6-32.7.4-1.9.9-4 1-4.5.2-1 2.2-12.4 3.1-18 .2-1.7 1.8-10.7 3.4-20 2.4-14.1 15.7-92.7 17.4-103 .3-1.7.8-4.6 1.1-6.5.4-1.9.8-4.4 1-5.5.2-1.1.8-4.7 1.4-8 .6-3.3 1.3-7.6 1.6-9.5.3-1.9.7-4.6 1-6 .2-1.4 1.1-6.6 1.9-11.5.9-5 1.8-10.4 2.1-12 .3-1.7 1.6-9.3 2.9-17 1.3-7.7 2.7-15.8 3-18 .5-3.9 1.9-11.4 6.9-39.5 2.7-15.3 2.8-24 .1-32-2.7-8.1-7.6-16.4-12.8-21.4-1.7-1.7-1.8-2.1-.5-3 7.1-5.2 16.8-16.4 21.7-24.8 13.2-23.2 15.1-53 4.9-77.8-5.9-14.3-18.1-29.6-30.2-37.9-13-9-29.8-14.7-45.6-15.6-1.9-.2-4.2-.3-5.1-.4-1-.1-2.4-2.3-3.8-5.9-6.9-19-24.4-33.5-44.6-36.8-16.3-2.7-35.8 2.6-48 12.9l-3.9 3.4-8.1-8.2c-15.8-16.3-30.9-23-52-23-10.6 0-13 .4-20.5 2.9-4.7 1.6-9 3.3-9.7 3.8-.8.7-2-.3-3.8-3.2-1.4-2.3-5.2-6.8-8.4-10-13-13.1-31.3-21.1-51.5-22.6-4.5-.3-8.6-.7-9.3-.9-.6-.2-1.3-.2-1.5 0zm17 31c3.9.6 12.4 4.1 17.3 7.1 6.5 4 12 10.6 16.4 19.9 4.8 10 7.8 13.4 12.7 14.4 4.9 1.1 9.1-.2 16.2-4.8 12.1-7.9 22.6-10.3 33.7-7.7 8.4 1.9 14.7 5.6 21.7 12.5 8.5 8.5 12 16.1 13.6 30 1.2 9.3 7.6 14.8 16 13.9 3.4-.4 5.6-1.4 7.8-3.4 3.6-3.5 4.5-5.5 5.8-14 2.5-15.7 11.8-24.3 27.3-25.2 7.1-.4 8.2-.2 14.2 2.7 9.5 4.7 14.5 12 15.9 22.8 1.7 14.6 5.7 17.4 25 17.8 7.9.2 15.6.9 19.3 1.9 22.1 5.6 37.8 22.6 43 46.6.6 2.6.4 16-.3 19.8-3.6 20.9-17.1 36.9-38.2 45.1l-6.7 2.6h-385l-4.5-2.2c-5.4-2.7-7.7-4.6-11.2-9.3-8.2-11.1-6.7-28.1 3.5-38.7 3.9-4.2 8.3-6.2 16-7.4 10.1-1.6 14.8-6 15.2-14.4.2-3.8-1.9-8.9-5.1-12.5-.7-.9-2.3-3.8-3.5-6.5-7.4-16.6 5.2-37 24-39.2 11.4-1.2 16.5-6.6 17.5-18.2.7-8.2 2.2-13.4 5.7-20.5C218 92 231.8 80.2 248 75.3c6.2-1.9 9.1-2.2 16.5-1.8 5 .2 10.5.7 12.3 1zm.9 233c.1 1.7 1.5 35.5 1.9 44 .5 12.2 1.4 34.7 1.9 48 .3 6.6.7 16.5 1 22 .3 5.5.7 16.7 1 25 .3 8.2.7 18.6 1 23 .2 4.4.7 15.2 1 24 .3 8.8.8 20 1 25 .3 4.9.7 15.5 1 23.5.3 8 .8 18.5 1 23.5.2 4.9.6 15.5 1 23.5.3 8 .8 19.8 1.1 26.2l.6 11.8h-7.6c-4.2 0-7.6-.3-7.7-.8-.3-2.3-.7-6.8-1.3-15.7-.4-5.5-.9-11.4-1.1-13-.2-1.7-.6-6.6-1-11-.3-4.4-.7-10-1-12.5-.2-2.5-.7-7.9-1-12-.3-4.1-.8-9.5-1-12-.2-2.5-.7-7.9-1-12-.3-4.1-.8-9.5-1-12-.2-2.5-.7-7.9-1-12-.3-4.1-.8-9.3-1-11.5-.2-2.2-.7-8.1-1-13-.4-5-.8-10.1-1-11.5-.2-1.4-.6-6.8-1-12s-.8-10.6-1-12c-.2-1.4-.6-6.3-1-11-.3-4.7-.8-10.5-1-13-.2-2.5-.7-7.9-1-12-.3-4.1-.8-9.5-1-12-.2-2.5-.7-8.3-1.1-13-.3-4.7-.7-9.2-.9-10-.1-.8-.6-6.4-1-12.5-.4-6-.8-11.6-1-12.5-.1-.8-.6-6.2-1-12s-.8-11.2-1-12c-.2-.8-.6-6.2-1-12s-.8-11.6-1-13l-.3-2.5h14.2c9.1-.1 14.3.3 14.3 1zm172.7 2c-.1 2.6-.8 11.9-1.9 25-1.5 17.8-1.9 22.3-3 36-.3 4.4-.8 9.6-1 11.5-.2 1.9-.7 7.3-1 12-.3 4.7-.8 10.1-1 12-.2 1.9-.7 7.3-1 12-.4 4.7-.8 10.1-1 12-.2 1.9-.6 7.3-1 12-.3 4.7-.8 10.1-1 12-.2 1.9-.6 7.3-1 12-.3 4.7-.8 10.1-1 12-.2 1.9-.7 7.5-1 12.5-.4 4.9-.8 10.1-1 11.5-.2 1.4-.7 6.5-1 11.5-.4 4.9-.8 10.6-1 12.5-.2 1.9-.7 7.1-1 11.4-.3 4.4-.8 9.8-1 12-.1 2.3-.6 8.1-1 13.1-.4 4.9-.8 10.1-1 11.5-.2 1.4-.7 7-1 12.5-.4 5.5-.8 10.7-1 11.5-.2.8-.7 6.2-1 11.9-.4 5.7-.9 11.1-1 12-.2.9-.4 2.4-.4 3.3-.1 1.6-1.2 1.8-7.7 1.8h-7.6l.6-12.3c.4-6.7.9-17.6 1.1-24.2.5-13.2 1.3-31.6 2-47 .2-5.5.7-16.8 1-25 .3-8.3.8-19.5 1-25 .6-13.9 1.6-36.1 2-48 .4-10 1.3-30.3 2-46.5.2-4.7.7-15.7 1-24.5.3-8.8.8-19.6 1-24 .2-4.4.7-15.9 1-25.5.4-9.6.9-17.8 1-18.1.2-.3 6.6-.5 14.2-.4l13.8.1-.1 2.9z"/><path d="M315.8 160.5c-.2.2-2.6.5-5.3.9-13.9 1.6-29.2 9.3-40.8 20.5-5.5 5.3-13.4 15.8-14.8 19.9-.9 2.6-1.2 2.7-7.7 2.8-15.5.1-30.8 9.8-38.1 24.1-7.8 15.5-5.1 30.7 5.9 33 9.6 2 17.1-3.8 18.4-14.2.8-6.2 5.6-11.8 11.4-13.4 2.9-.8 4.2-.5 9.2 2 6.2 3.1 10.4 3.6 14.1 1.6 5.2-2.7 7-5.3 9.5-13.3 5.5-18 17.7-29.8 35-33.7 16.9-3.8 34.6 4.4 45.1 20.9 3.7 5.9 5.9 12.1 6.7 19.2.7 6.2 2.6 11.1 5.2 13.3 2.1 1.8 7.1 3.6 9.4 3.4.8-.1 2.5-.3 3.7-.3 3.4-.3 8.8-5.6 10.2-10.1 1-3.6.9-7.4-.5-16.2-1.9-12.2-10-27.2-20.1-37.6-13.8-14.1-30.7-21.9-48.8-22.7-4.1-.1-7.6-.2-7.7-.1z"/></svg>